<?xml version="1.0" encoding="UTF-8" standalone="no"?>
<!-- Created with Inkscape (http://www.inkscape.org/) -->

<svg
   xmlns:dc="http://purl.org/dc/elements/1.1/"
   xmlns:cc="http://creativecommons.org/ns#"
   xmlns:rdf="http://www.w3.org/1999/02/22-rdf-syntax-ns#"
   xmlns:svg="http://www.w3.org/2000/svg"
   xmlns="http://www.w3.org/2000/svg"
   version="1.1"
   width="478.84375"
   height="402.24152"
   id="svg2">
  <defs
     id="defs4">
    <marker
       refX="0"
       refY="0"
       orient="auto"
       id="DotS"
       style="overflow:visible">
      <path
         d="m -2.5,-1 c 0,2.76 -2.24,5 -5,5 -2.76,0 -5,-2.24 -5,-5 0,-2.76 2.24,-5 5,-5 2.76,0 5,2.24 5,5 z"
         transform="matrix(0.2,0,0,0.2,1.48,0.2)"
         id="path3847"
         style="fill-rule:evenodd;stroke:#000000;stroke-width:1pt" />
    </marker>
    <marker
       refX="0"
       refY="0"
       orient="auto"
       id="DotM"
       style="overflow:visible">
      <path
         d="m -2.5,-1 c 0,2.76 -2.24,5 -5,5 -2.76,0 -5,-2.24 -5,-5 0,-2.76 2.24,-5 5,-5 2.76,0 5,2.24 5,5 z"
         transform="matrix(0.4,0,0,0.4,2.96,0.4)"
         id="path3844"
         style="fill-rule:evenodd;stroke:#000000;stroke-width:1pt" />
    </marker>
    <marker
       refX="0"
       refY="0"
       orient="auto"
       id="DotL"
       style="overflow:visible">
      <path
         d="m -2.5,-1 c 0,2.76 -2.24,5 -5,5 -2.76,0 -5,-2.24 -5,-5 0,-2.76 2.24,-5 5,-5 2.76,0 5,2.24 5,5 z"
         transform="matrix(0.8,0,0,0.8,5.92,0.8)"
         id="path3841"
         style="fill-rule:evenodd;stroke:#000000;stroke-width:1pt" />
    </marker>
    <marker
       refX="0"
       refY="0"
       orient="auto"
       id="Tail"
       style="overflow:visible">
      <g
         transform="scale(-1.2,-1.2)"
         id="g3816">
        <path
           d="M -3.8048674,-3.9585227 0.54352094,0"
           id="path3818"
           style="fill:none;stroke:#000000;stroke-width:0.80000001;stroke-linecap:round" />
        <path
           d="M -1.2866832,-3.9585227 3.0617053,0"
           id="path3820"
           style="fill:none;stroke:#000000;stroke-width:0.80000001;stroke-linecap:round" />
        <path
           d="M 1.3053582,-3.9585227 5.6537466,0"
           id="path3822"
           style="fill:none;stroke:#000000;stroke-width:0.80000001;stroke-linecap:round" />
        <path
           d="M -3.8048674,4.1775838 0.54352094,0.21974226"
           id="path3824"
           style="fill:none;stroke:#000000;stroke-width:0.80000001;stroke-linecap:round" />
        <path
           d="M -1.2866832,4.1775838 3.0617053,0.21974226"
           id="path3826"
           style="fill:none;stroke:#000000;stroke-width:0.80000001;stroke-linecap:round" />
        <path
           d="M 1.3053582,4.1775838 5.6537466,0.21974226"
           id="path3828"
           style="fill:none;stroke:#000000;stroke-width:0.80000001;stroke-linecap:round" />
      </g>
    </marker>
  </defs>
  <metadata
     id="metadata7">
    <rdf:RDF>
      <cc:Work
         rdf:about="">
        <dc:format>image/svg+xml</dc:format>
        <dc:type
           rdf:resource="http://purl.org/dc/dcmitype/StillImage" />
        <dc:title></dc:title>
      </cc:Work>
    </rdf:RDF>
  </metadata>
  <g
     transform="translate(0,0.00672248)"
     id="g4499">
    <path
       d="m 229.33094,392.74623 c -40.58084,-25.9278 -113.44979,-42.4459 -197.97266,-44.877 -11.275004,-0.3243 -21.512504,-0.7961 -22.750004,-1.0485 l -2.25,-0.4589 0,-169.5123 c 0,-157.231591 0.12065,-169.558591 1.66526,-170.151291 2.21767,-0.851 48.826794,1.3351 68.334734,3.2052 77.566,7.4354 138.10468,28.571 157.15259,54.8659 l 2.84741,3.9307 0,163.290891 c 0,89.8101 -0.3498,163.5072 -0.77733,163.7714 -0.42753,0.2642 -3.24003,-1.093 -6.25,-3.0161 z"
       id="path3004"
       style="fill:#92c741;fill-opacity:1;stroke:#ffffff;stroke-width:12.70000076;stroke-linecap:butt;stroke-miterlimit:6.5;stroke-opacity:0;stroke-dasharray:none;marker-start:none" />
    <path
       d="m 249.51254,392.58532 c 40.58084,-25.9278 113.44979,-42.44591 197.97265,-44.87701 11.27501,-0.3243 21.5125,-0.7961 22.75,-1.0485 l 2.25,-0.4589 0,-169.5123 c 0,-157.231591 -0.12065,-169.558591 -1.66526,-170.151291 -2.21766,-0.851 -48.82679,1.3351 -68.33473,3.2052 -77.56599,7.4354 -138.10467,28.570999 -157.15258,54.865899 l -2.84741,3.9307 0,163.290892 c 0,89.8101 0.3498,163.50721 0.77733,163.77141 0.42753,0.2642 3.24003,-1.093 6.25,-3.0161 z"
       id="path3004-0"
       style="fill:#92c741;fill-opacity:1;stroke:#ffffff;stroke-width:12.70000076;stroke-linecap:butt;stroke-miterlimit:6.5;stroke-opacity:0;stroke-dasharray:none;marker-start:none" />
  </g>
</svg>
